<svg width="68" height="16" viewBox="0 0 68 16" fill="none" xmlns="http://www.w3.org/2000/svg">
<rect opacity="0.35" x="43.5" y="2.83334" width="21" height="10.3333" rx="2.16667" stroke="black"/>
<path opacity="0.4" d="M66 6V10C66.8079 9.66122 67.3333 8.87313 67.3333 8C67.3333 7.12687 66.8079 6.33878 66 6" fill="black"/>
<rect x="45" y="4.33334" width="18" height="7.33333" rx="1.33333" fill="black"/>
<path fill-rule="evenodd" clip-rule="evenodd" d="M30.3341 4.57391C32.5588 4.574 34.6985 5.4117 36.3108 6.91385C36.4323 7.02982 36.6263 7.02836 36.7459 6.91057L37.9065 5.76273C37.9671 5.70299 38.0008 5.62207 38.0003 5.53787C37.9998 5.45367 37.9651 5.37314 37.9038 5.3141C33.6719 1.33976 26.9956 1.33976 22.7636 5.3141C22.7023 5.3731 22.6676 5.4536 22.667 5.5378C22.6664 5.622 22.7001 5.70295 22.7606 5.76273L23.9216 6.91057C24.0411 7.02853 24.2353 7.03 24.3566 6.91385C25.9692 5.4116 28.1091 4.5739 30.3341 4.57391ZM30.3325 8.29946C31.5562 8.29939 32.7363 8.75599 33.6434 9.58055C33.766 9.69757 33.9593 9.69503 34.0789 9.57483L35.2395 8.39767C35.3006 8.33593 35.3345 8.25216 35.3336 8.16512C35.3328 8.07808 35.2972 7.99503 35.2348 7.93454C32.4725 5.35517 28.1948 5.35517 25.4325 7.93454C25.3701 7.99503 25.3345 8.07812 25.3337 8.16519C25.3329 8.25226 25.3669 8.33601 25.4281 8.39767L26.5884 9.57483C26.708 9.69503 26.9012 9.69757 27.0239 9.58055C27.9304 8.75653 29.1096 8.29997 30.3325 8.29946ZM32.6669 11.0231C32.6687 11.1085 32.6344 11.1909 32.5721 11.2508L30.5573 13.2419C30.4983 13.3004 30.4178 13.3333 30.3337 13.3333C30.2497 13.3333 30.1692 13.3004 30.1101 13.2419L28.095 11.2508C28.0328 11.1908 27.9986 11.1084 28.0004 11.023C28.0022 10.9375 28.04 10.8566 28.1048 10.7993C29.3915 9.73357 31.276 9.73357 32.5627 10.7993C32.6274 10.8567 32.6651 10.9376 32.6669 11.0231Z" fill="black"/>
<path fill-rule="evenodd" clip-rule="evenodd" d="M17.667 3.66666C17.667 3.11437 17.2193 2.66666 16.667 2.66666H15.667C15.1147 2.66666 14.667 3.11437 14.667 3.66666V12.3333C14.667 12.8856 15.1147 13.3333 15.667 13.3333H16.667C17.2193 13.3333 17.667 12.8856 17.667 12.3333V3.66666ZM11.0003 4.99999H12.0003C12.5526 4.99999 13.0003 5.44771 13.0003 5.99999V12.3333C13.0003 12.8856 12.5526 13.3333 12.0003 13.3333H11.0003C10.448 13.3333 10.0003 12.8856 10.0003 12.3333V5.99999C10.0003 5.44771 10.448 4.99999 11.0003 4.99999ZM7.33366 7.33332H6.33366C5.78137 7.33332 5.33366 7.78104 5.33366 8.33332V12.3333C5.33366 12.8856 5.78137 13.3333 6.33366 13.3333H7.33366C7.88594 13.3333 8.33366 12.8856 8.33366 12.3333V8.33332C8.33366 7.78104 7.88594 7.33332 7.33366 7.33332ZM3.66699 10.3333C3.66699 9.78104 3.21928 9.33332 2.66699 9.33332H1.66699C1.11471 9.33332 0.666992 9.78104 0.666992 10.3333V12.3333C0.666992 12.8856 1.11471 13.3333 1.66699 13.3333H2.66699C3.21928 13.3333 3.66699 12.8856 3.66699 12.3333V10.3333Z" fill="black"/>
</svg>
