<svg width="90" height="30" viewBox="0 0 90 30" fill="none" xmlns="http://www.w3.org/2000/svg">
<path d="M9.41344 29.36C7.80544 29.36 6.36544 28.988 5.09344 28.244C3.82144 27.5 2.81344 26.492 2.06944 25.22C1.32544 23.948 0.953439 22.52 0.953439 20.936C0.953439 20.528 1.08544 20.192 1.34944 19.928C1.61344 19.664 1.94944 19.532 2.35744 19.532C2.76544 19.532 3.10144 19.664 3.36544 19.928C3.62944 20.192 3.76144 20.528 3.76144 20.936C3.76144 22.016 4.01344 23 4.51744 23.888C5.02144 24.752 5.69344 25.436 6.53344 25.94C7.39744 26.444 8.35744 26.696 9.41344 26.696C10.4694 26.696 11.4174 26.444 12.2574 25.94C13.1214 25.412 13.7934 24.716 14.2734 23.852C14.7774 22.988 15.0294 22.016 15.0294 20.936V2.288C15.0294 1.88 15.1614 1.544 15.4254 1.28C15.6894 1.016 16.0254 0.883999 16.4334 0.883999C16.8414 0.883999 17.1774 1.016 17.4414 1.28C17.7054 1.544 17.8374 1.88 17.8374 2.288V20.936C17.8374 22.52 17.4654 23.948 16.7214 25.22C15.9774 26.492 14.9694 27.5 13.6974 28.244C12.4254 28.988 10.9974 29.36 9.41344 29.36ZM32.8227 29.18C30.9747 29.18 29.3187 28.748 27.8547 27.884C26.3907 26.996 25.2267 25.796 24.3627 24.284C23.5227 22.772 23.1027 21.068 23.1027 19.172C23.1027 17.252 23.5347 15.536 24.3987 14.024C25.2867 12.512 26.4867 11.324 27.9987 10.46C29.5107 9.572 31.2147 9.128 33.1107 9.128C35.0067 9.128 36.6987 9.572 38.1867 10.46C39.6987 11.324 40.8867 12.512 41.7507 14.024C42.6387 15.536 43.0947 17.252 43.1187 19.172L42.0027 20.036C42.0027 21.764 41.5947 23.324 40.7787 24.716C39.9867 26.084 38.8947 27.176 37.5027 27.992C36.1347 28.784 34.5747 29.18 32.8227 29.18ZM33.1107 26.66C34.5027 26.66 35.7387 26.336 36.8187 25.688C37.9227 25.04 38.7867 24.152 39.4107 23.024C40.0587 21.872 40.3827 20.588 40.3827 19.172C40.3827 17.732 40.0587 16.448 39.4107 15.32C38.7867 14.192 37.9227 13.304 36.8187 12.656C35.7387 11.984 34.5027 11.648 33.1107 11.648C31.7427 11.648 30.5067 11.984 29.4027 12.656C28.2987 13.304 27.4227 14.192 26.7747 15.32C26.1267 16.448 25.8027 17.732 25.8027 19.172C25.8027 20.588 26.1267 21.872 26.7747 23.024C27.4227 24.152 28.2987 25.04 29.4027 25.688C30.5067 26.336 31.7427 26.66 33.1107 26.66ZM41.7147 29C41.3067 29 40.9707 28.88 40.7067 28.64C40.4427 28.376 40.3107 28.04 40.3107 27.632V21.476L40.9947 18.632L43.1187 19.172V27.632C43.1187 28.04 42.9867 28.376 42.7227 28.64C42.4587 28.88 42.1227 29 41.7147 29ZM64.854 29C64.446 29 64.11 28.868 63.846 28.604C63.582 28.34 63.45 28.016 63.45 27.632V18.272C63.45 16.784 63.162 15.56 62.586 14.6C62.034 13.64 61.266 12.92 60.282 12.44C59.322 11.96 58.23 11.72 57.006 11.72C55.83 11.72 54.762 11.948 53.802 12.404C52.866 12.86 52.122 13.484 51.57 14.276C51.018 15.068 50.742 15.968 50.742 16.976H48.762C48.81 15.464 49.218 14.12 49.986 12.944C50.754 11.744 51.774 10.808 53.046 10.136C54.318 9.44 55.734 9.092 57.294 9.092C58.998 9.092 60.522 9.452 61.866 10.172C63.21 10.868 64.266 11.9 65.034 13.268C65.826 14.636 66.222 16.304 66.222 18.272V27.632C66.222 28.016 66.09 28.34 65.826 28.604C65.562 28.868 65.238 29 64.854 29ZM49.374 29C48.942 29 48.594 28.88 48.33 28.64C48.09 28.376 47.97 28.04 47.97 27.632V10.712C47.97 10.28 48.09 9.944 48.33 9.704C48.594 9.44 48.942 9.308 49.374 9.308C49.782 9.308 50.106 9.44 50.346 9.704C50.61 9.944 50.742 10.28 50.742 10.712V27.632C50.742 28.04 50.61 28.376 50.346 28.64C50.106 28.88 49.782 29 49.374 29ZM80.7213 29.18C78.7773 29.18 77.0493 28.76 75.5373 27.92C74.0493 27.056 72.8733 25.868 72.0093 24.356C71.1693 22.844 70.7493 21.116 70.7493 19.172C70.7493 17.204 71.1453 15.476 71.9373 13.988C72.7533 12.476 73.8693 11.288 75.2853 10.424C76.7013 9.56 78.3333 9.128 80.1813 9.128C82.0053 9.128 83.5893 9.548 84.9333 10.388C86.3013 11.204 87.3573 12.344 88.1013 13.808C88.8453 15.272 89.2173 16.94 89.2173 18.812C89.2173 19.196 89.0973 19.508 88.8573 19.748C88.6173 19.964 88.3053 20.072 87.9213 20.072H72.6213V17.768H88.2093L86.6613 18.884C86.6853 17.492 86.4333 16.244 85.9053 15.14C85.3773 14.036 84.6213 13.172 83.6373 12.548C82.6773 11.924 81.5253 11.612 80.1813 11.612C78.8133 11.612 77.6133 11.936 76.5813 12.584C75.5493 13.232 74.7453 14.132 74.1693 15.284C73.6173 16.412 73.3413 17.708 73.3413 19.172C73.3413 20.636 73.6533 21.932 74.2773 23.06C74.9253 24.188 75.8013 25.076 76.9053 25.724C78.0093 26.372 79.2813 26.696 80.7213 26.696C81.5853 26.696 82.4493 26.552 83.3133 26.264C84.2013 25.952 84.9093 25.568 85.4373 25.112C85.7013 24.896 86.0013 24.788 86.3373 24.788C86.6733 24.764 86.9613 24.848 87.2013 25.04C87.5133 25.328 87.6693 25.64 87.6693 25.976C87.6933 26.312 87.5613 26.6 87.2733 26.84C86.4813 27.512 85.4733 28.076 84.2493 28.532C83.0253 28.964 81.8493 29.18 80.7213 29.18Z" fill="black"/>
</svg>
